<svg xmlns="http://www.w3.org/2000/svg" viewBox="0 0 1043.29 367.76"><defs><style>.cls-1{fill:#06389A;}.cls-2{fill:#fff;}.cls-3{fill:#e35c24;}</style></defs><title>VUB-LOGO-BLACK</title><path class="cls-1" d="M501.66 117.9l29.07-69.98h-7.67l-24.72 61.27-24.52-61.27h-7.67l28.88 69.98h6.63zM548.53 54.27h11.08c5.49 0 11.17 0 15.81 3.31a15.61 15.61 0 0 1 6.58 12.5 15.21 15.21 0 0 1-9.09 14.2c-4.64 2.08-10.32 1.89-15.25 1.89h-2.08l23.77 31.72H588l-19.7-26.14a21.15 21.15 0 0 0 20.64-21c0-8.14-3.79-15.34-10.89-19.41-5.87-3.31-13.26-3.41-19.89-3.41h-16.64v70h7V54.27zM601.65 47.92h7.01v69.98h-7.01zM638.2 119.13a18.76 18.76 0 0 0 15-6.91c3.69-4.55 3.41-8.52 3.79-14v-50.3h-7v48.2c0 2.94.09 6.53-.85 9.28a10.65 10.65 0 0 1-10.23 7c-6.63 0-11.93-4.45-12.41-11.08h-6.91a18.28 18.28 0 0 0 18.61 17.81zM712.25 111.56H681V85.8h30.21v-6.34H681V54.27h31.25v-6.35H674v69.98h38.25v-6.34zM513 190.79c0 5.49-.47 11.08-3.88 15.62a16.32 16.32 0 0 1-26.51-.95c-2.75-4.36-3.22-9.66-3.22-14.68v-42.51h-7v42.52c0 7.39.76 14.39 5.59 20.36a23.64 23.64 0 0 0 18.28 8.33 23.15 23.15 0 0 0 18.56-8.9c4.55-5.87 5.21-12.69 5.21-19.79v-42.52h-7v42.52zM592.75 148.28h-7v58.04l-39.21-58.04h-9.47v69.97h7.01V156.7l41.67 61.55h7v-69.97zM609.79 148.27h7.01v69.98h-7.01zM659.79 209.54l-24.52-61.26h-7.67l28.88 69.97h6.63l29.07-69.97h-7.67l-24.72 61.26zM741.23 154.62v-6.34h-38.26v69.97h38.26v-6.34h-31.25v-25.76h30.2v-6.34h-30.2v-25.19h31.25zM803.82 171.1c0-8.14-3.79-15.34-10.89-19.41-5.87-3.31-13.26-3.41-19.89-3.41h-16.66v70h7v-63.66h11.08c5.49 0 11.17 0 15.81 3.31a15.61 15.61 0 0 1 6.53 12.5 15.21 15.21 0 0 1-9.09 14.2c-4.64 2.08-10.32 1.89-15.25 1.89h-2.08l23.77 31.72h8.71l-19.7-26.14a21.14 21.14 0 0 0 20.66-21zM847.85 184.35c-4.07-3.69-8.43-4.55-13.45-6-6.82-1.89-13.83-3.88-13.83-12.31a12.08 12.08 0 0 1 12-12.22c7.2 0 12.31 5.11 12.78 12.22h7.29c.09-10.7-8.62-18.94-19.22-18.94-11 0-19.89 7.58-19.89 18.84a16.93 16.93 0 0 0 5.87 13.07c3.5 3 8 4.17 12.31 5.3 4 1 7.58 2 10.8 4.64a13.1 13.1 0 0 1 4.83 9.94c0 8-6.53 13.83-14.49 13.83a14.19 14.19 0 0 1-14-14.11h-7.48c-.09 12.22 9.75 20.83 21.68 20.83 11.36 0 21.31-8.9 21.31-20.45a19.51 19.51 0 0 0-6.51-14.64zM866.31 148.27h7.01v69.98h-7.01zM883.83 154.62h16.1v63.63h7v-63.63h15.91v-6.34h-39.01v6.34zM933.35 218.25h38.26v-6.34h-31.25v-25.76h30.21v-6.34h-30.21v-25.19h31.25v-6.34h-38.26v69.97zM986.76 148.27h7.01v69.98h-7.01zM1004.28 148.28v6.34h16.09v63.63h7.01v-63.63h15.91v-6.34h-39.01zM505.16 281.2c4.83-3.41 7.76-8 7.76-14a18.24 18.24 0 0 0-8.24-15.06c-4.83-3.12-10.32-3.5-15.91-3.5H472.4v70h16.48c7-.09 13.07.09 19.22-3.79a19.07 19.07 0 0 0 8.62-16c-.01-8.09-4.17-14.62-11.56-17.65zM479.41 255h8.14c4.17-.19 9.19-.09 12.78 2.08a12 12 0 0 1 5.59 9.66 11.38 11.38 0 0 1-5.68 9.75c-4 2.18-8.81 2.08-13.26 2.08h-7.58V255zm23.39 55.21c-4.26 2.18-10 2.18-14.77 2.08h-8.62v-27.4h7.39c4.64 0 9.75-.09 14.11 1.42a12.72 12.72 0 0 1 8.71 12.59 13.16 13.16 0 0 1-6.83 11.28zM576.84 271.45c0-8.14-3.79-15.34-10.89-19.41-5.87-3.31-13.26-3.41-19.89-3.41H529.4v70h7V255h11.08c5.49 0 11.17 0 15.81 3.31a15.61 15.61 0 0 1 6.53 12.5 15.21 15.21 0 0 1-9.09 14.2c-4.64 2.08-10.32 1.89-15.25 1.89h-2.08l23.77 31.72h8.71l-19.7-26.14a21.14 21.14 0 0 0 20.66-21.03zM630.15 291.14c0 5.49-.47 11.08-3.88 15.62a16.32 16.32 0 0 1-26.51-.95c-2.75-4.36-3.22-9.66-3.22-14.68v-42.51h-7v42.52c0 7.39.76 14.39 5.59 20.36a23.64 23.64 0 0 0 18.28 8.33 23.15 23.15 0 0 0 18.56-8.9c4.55-5.87 5.21-12.69 5.21-19.79v-42.52h-7v42.52zM685.55 284.7c-4.07-3.69-8.43-4.55-13.45-6-6.82-1.89-13.83-3.88-13.83-12.31a12.08 12.08 0 0 1 12-12.22c7.2 0 12.31 5.11 12.78 12.22h7.29c.09-10.7-8.62-18.94-19.22-18.94-11 0-19.89 7.58-19.89 18.84a16.93 16.93 0 0 0 5.87 13.07c3.5 3 8 4.17 12.31 5.3 4 1 7.58 2 10.8 4.64a13.1 13.1 0 0 1 4.83 9.94c0 8-6.53 13.83-14.49 13.83a14.19 14.19 0 0 1-14-14.11h-7.48c-.09 12.22 9.75 20.83 21.69 20.83 11.36 0 21.31-8.9 21.31-20.45a19.51 19.51 0 0 0-6.52-14.64zM735.35 284.7c-4.07-3.69-8.43-4.55-13.45-6-6.82-1.89-13.83-3.88-13.83-12.31a12.08 12.08 0 0 1 12-12.22c7.2 0 12.31 5.11 12.78 12.22h7.29c.09-10.7-8.62-18.94-19.22-18.94-11 0-19.89 7.58-19.89 18.84a16.93 16.93 0 0 0 5.87 13.07c3.5 3 8 4.17 12.31 5.3 4 1 7.58 2 10.8 4.64a13.1 13.1 0 0 1 4.83 9.94c0 8-6.53 13.83-14.49 13.83a14.19 14.19 0 0 1-14-14.11h-7.45c-.09 12.22 9.75 20.83 21.69 20.83 11.36 0 21.31-8.9 21.31-20.45a19.51 19.51 0 0 0-6.55-14.64zM753.82 318.6h38.25v-6.34h-31.24V286.5h30.2v-6.34h-30.2v-25.19h31.24v-6.34h-38.25v69.97zM814.23 248.63h-7.01v69.97h35.99v-6.34h-28.98v-63.63zM34.66 0h367.76v367.76H34.66z"/><path class="cls-2" d="M79.67 223.06h-.01.01zM179.41 208.52V207v1.52zM369.18 175.83c12.55-6 18.82-19.29 18.82-32.77 0-16-10-31.37-24.17-38.57-14.41-7.2-30.21-6.5-45.78-6.5l-39.88.07v171.65h51.76c16.5-.46 33.93-1.39 47.64-11.38 13.25-10 20.91-24.17 20.91-40.9-.02-19.52-10.48-35.55-29.3-41.6zm-59.09-47h14.43c6.74 0 14.87-1.16 20.91 1.63 6.27 2.56 10.69 8.13 10.69 15.1a17.54 17.54 0 0 1-9.76 15.8c-6 2.79-14.87 2.55-21.61 2.55h-14.66v-35.04zm48.17 103.9c-8.37 5.58-17 6-26.26 6h-21.9v-43.84h22.6c7.67 0 15.34-.23 22.54 3.48 7.44 4.18 11.39 9.3 11.39 17.66 0 7.21-2.56 12.78-8.37 16.73z"/><path class="cls-3" d="M0 98.06l34.66 89.2v-89.2H0z"/><path class="cls-2" d="M179.41 98.06v112.53c0 6.12.4 12.23 3.27 17.78a32.08 32.08 0 0 0 1.71 2.87A28.92 28.92 0 0 0 204.64 243l.9.09c.83.07 1.68.11 2.53.11.87 0 1.74 0 2.59-.11l1-.1a28.75 28.75 0 0 0 21.67-14.12c2.66-5.32 3.3-11 3.44-16.91V98.06h31.83v107.11c0 12.77-.79 25-6 36-9.41 18.66-29 31.74-51.94 32.68q-1.31.05-2.63.05-1.32 0-2.64-.05a62.73 62.73 0 0 1-20.07-4.15 64.92 64.92 0 0 1-23.77-16.7c-12.54-14.16-13.93-30-13.93-47.83v-76.9l-.06.16L92.9 269.64H66.67l-32-82.38v-89.2l45 127.07 45-127.08h54.74z"/></svg>