<svg xmlns="http://www.w3.org/2000/svg" viewBox="0 0 1043.3 367.8" enable-background="new 0 0 1043.3 367.8"><style type="text/css">.st0{fill:#FFFFFF;}</style><title>VUB-LOGO-BLACK</title><path class="st0" d="M501.7 117.9l29-70h-7.6l-24.8 61.3-24.5-61.3h-7.7l28.9 70zM548.5 54.3h11.1c5.5 0 11.2 0 15.8 3.3 4.1 2.9 6.5 7.5 6.6 12.5.1 6.1-3.5 11.7-9.1 14.2-4.6 2.1-10.3 1.9-15.2 1.9h-2.1l23.8 31.7h8.7l-19.7-26.1c11.4-.3 20.6-9.6 20.6-21 0-8.1-3.8-15.3-10.9-19.4-5.9-3.3-13.3-3.4-19.9-3.4h-16.6v70h7l-.1-63.7zM601.7 47.9h7v70h-7zM638.2 119.1c5.8.1 11.3-2.4 15-6.9 3.7-4.6 3.4-8.5 3.8-14V47.9h-7v48.2c0 2.9.1 6.5-.8 9.3-1.6 4.3-5.7 7.1-10.2 7-6.6 0-11.9-4.4-12.4-11.1h-6.9c.1 10.1 8.5 18 18.5 17.8zM712.2 111.6H681V85.8h30.2v-6.3H681V54.3h31.2v-6.4H674v70h38.2zM513 190.8c0 5.5-.5 11.1-3.9 15.6-5.5 7.1-15.8 8.4-22.9 2.9-1.4-1.1-2.6-2.4-3.6-3.9-2.8-4.4-3.2-9.7-3.2-14.7v-42.5h-7v42.5c0 7.4.8 14.4 5.6 20.4 4.6 5.4 11.3 8.4 18.3 8.3 7.2.1 14.1-3.2 18.6-8.9 4.5-5.9 5.2-12.7 5.2-19.8v-42.5h-7l-.1 42.6zM592.8 148.3h-7v58l-39.3-58h-9.4v69.9h7v-61.5l41.7 61.5h7zM609.8 148.3h7v70h-7zM659.8 209.5l-24.5-61.2h-7.7l28.9 69.9h6.6l29.1-69.9h-7.7zM741.2 154.6v-6.3H703v69.9h38.2v-6.3H710v-25.8h30.2v-6.3H710v-25.2zM803.8 171.1c0-8.1-3.8-15.3-10.9-19.4-5.9-3.3-13.3-3.4-19.9-3.4h-16.7v70h7v-63.7h11.1c5.5 0 11.2 0 15.8 3.3 4 2.9 6.5 7.5 6.5 12.5.1 6.1-3.5 11.7-9.1 14.2-4.6 2.1-10.3 1.9-15.2 1.9h-2.1l23.8 31.7h8.7l-19.7-26.1c11.5-.3 20.6-9.6 20.7-21zM847.8 184.3c-4.1-3.7-8.4-4.6-13.5-6-6.8-1.9-13.8-3.9-13.8-12.3-.1-6.7 5.3-12.1 11.9-12.2h.1c7.2 0 12.3 5.1 12.8 12.2h7.3c.1-10.7-8.6-18.9-19.2-18.9-11 0-19.9 7.6-19.9 18.8-.1 5 2.1 9.8 5.9 13.1 3.5 3 8 4.2 12.3 5.3 4 1 7.6 2 10.8 4.6 3 2.4 4.8 6.1 4.8 9.9 0 8-6.5 13.8-14.5 13.8-7.7-.1-14-6.4-14-14.1h-7.5c-.1 12.2 9.8 20.8 21.7 20.8 11.4 0 21.3-8.9 21.3-20.4.1-5.5-2.3-10.8-6.5-14.6zM866.3 148.3h7v70h-7zM883.8 154.6h16.1v63.6h7v-63.6h15.9v-6.3h-39zM933.3 218.2h38.3v-6.3h-31.2v-25.8h30.2v-6.3h-30.2v-25.2h31.2v-6.3h-38.3zM986.8 148.3h7v70h-7zM1004.3 148.3v6.3h16.1v63.6h7v-63.6h15.9v-6.3zM505.2 281.2c4.8-3.4 7.8-8 7.8-14-.1-6.1-3.2-11.7-8.2-15.1-4.8-3.1-10.3-3.5-15.9-3.5h-16.4v70H489c7-.1 13.1.1 19.2-3.8 5.4-3.5 8.6-9.6 8.6-16-.1-8-4.3-14.6-11.6-17.6zM479.4 255h8.1c4.2-.2 9.2-.1 12.8 2.1 3.3 2.1 5.4 5.7 5.6 9.7 0 4-2.2 7.7-5.7 9.8-4 2.2-8.8 2.1-13.3 2.1h-7.6l.1-23.7zm23.4 55.2c-4.3 2.2-10 2.2-14.8 2.1h-8.6v-27.4h7.4c4.6 0 9.8-.1 14.1 1.4 5.4 1.8 8.9 6.9 8.7 12.6-.1 4.7-2.7 9-6.8 11.3zM576.8 271.5c0-8.1-3.8-15.3-10.9-19.4-5.9-3.3-13.3-3.4-19.9-3.4h-16.7v70h7V255h11.1c5.5 0 11.2 0 15.8 3.3 4 2.9 6.5 7.5 6.5 12.5.1 6.1-3.5 11.7-9.1 14.2-4.6 2.1-10.3 1.9-15.2 1.9h-2.1l23.8 31.7h8.7l-19.7-26.1c11.5-.3 20.7-9.6 20.7-21zM630.2 291.1c0 5.5-.5 11.1-3.9 15.6-5.5 7.1-15.8 8.4-22.9 2.9-1.4-1.1-2.6-2.4-3.6-3.9-2.8-4.4-3.2-9.7-3.2-14.7v-42.5h-7V291c0 7.4.8 14.4 5.6 20.4 4.6 5.4 11.3 8.4 18.3 8.3 7.2.1 14.1-3.2 18.6-8.9 4.5-5.9 5.2-12.7 5.2-19.8v-42.5h-7l-.1 42.6zM685.5 284.7c-4.1-3.7-8.4-4.5-13.5-6-6.8-1.9-13.8-3.9-13.8-12.3-.1-6.7 5.3-12.1 11.9-12.2h.1c7.2 0 12.3 5.1 12.8 12.2h7.3c.1-10.7-8.6-18.9-19.2-18.9-11 0-19.9 7.6-19.9 18.8-.1 5 2.1 9.8 5.9 13.1 3.5 3 8 4.2 12.3 5.3 4 1 7.6 2 10.8 4.6 3 2.4 4.8 6.1 4.8 9.9 0 8-6.5 13.8-14.5 13.8-7.7-.1-14-6.4-14-14.1H649c-.1 12.2 9.8 20.8 21.7 20.8 11.4 0 21.3-8.9 21.3-20.5.1-5.4-2.3-10.8-6.5-14.5zM735.3 284.7c-4.1-3.7-8.4-4.5-13.5-6-6.8-1.9-13.8-3.9-13.8-12.3-.1-6.7 5.3-12.1 11.9-12.2h.1c7.2 0 12.3 5.1 12.8 12.2h7.3c.1-10.7-8.6-18.9-19.2-18.9-11 0-19.9 7.6-19.9 18.8-.1 5 2.1 9.8 5.9 13.1 3.5 3 8 4.2 12.3 5.3 4 1 7.6 2 10.8 4.6 3 2.4 4.8 6.1 4.8 9.9 0 8-6.5 13.8-14.5 13.8-7.7-.1-14-6.4-14-14.1h-7.4c-.1 12.2 9.8 20.8 21.7 20.8 11.4 0 21.3-8.9 21.3-20.5 0-5.5-2.4-10.8-6.6-14.5zM753.8 318.6h38.3v-6.3h-31.3v-25.8H791v-6.3h-30.2V255h31.3v-6.4h-38.3zM814.2 248.6h-7v70h36v-6.3h-29zM79.7 223.1zM179.4 208.5V207v1.5zM324.8 163.9c6.7 0 15.6.2 21.6-2.6 6-3 9.8-9.1 9.8-15.8 0-7-4.4-12.5-10.7-15.1-6-2.8-14.2-1.6-20.9-1.6h-14.4v35h14.6zM34.7 0v367.8h367.8V0H34.7zm233.9 205.2c0 12.8-.8 25-6 36-9.4 18.7-29 31.7-51.9 32.7h-5.2c-6.9-.3-13.7-1.7-20.1-4.1-9.1-3.7-17.2-9.4-23.8-16.7-12.5-14.2-13.9-30-13.9-47.8v-76.9l-.1.2-54.7 141H66.7l-32-82.4V98.1l45 127.1 45-127.1h54.7v112.5c0 6.1.4 12.2 3.3 17.8.5 1 1.1 1.9 1.7 2.9 4.8 6.6 12.1 10.9 20.2 11.8l.9.1c.8.1 1.7.1 2.5.1.9 0 1.7 0 2.6-.1l1-.1c9.1-1 17.1-6.2 21.7-14.1 2.7-5.3 3.3-11 3.4-16.9v-114h31.8v107.1zm109 53.1c-13.7 10-31.1 10.9-47.6 11.4h-51.8V98.1L318 98c15.6 0 31.4-.7 45.8 6.5 14.2 7.2 24.2 22.6 24.2 38.6 0 13.5-6.3 26.8-18.8 32.8 18.8 6 29.3 22.1 29.3 41.6 0 16.7-7.7 30.8-20.9 40.8zM355.2 198.4c-7.2-3.7-14.9-3.5-22.5-3.5h-22.6v43.8H332c9.3 0 17.9-.4 26.3-6 5.8-4 8.4-9.5 8.4-16.7-.1-8.3-4-13.5-11.5-17.6zM0 98.1l34.7 89.2V98.1z"/></svg>